<?xml version="1.0" encoding="UTF-8"?>
<svg width="700pt" height="700pt" version="1.1" viewBox="0 0 700 700" xmlns="http://www.w3.org/2000/svg" xmlns:xlink="http://www.w3.org/1999/xlink">

 <g>
  <path d="m425.04 360.64c-33.039 33.039-33.039 86.238 0 118.72 16.242 16.242 38.082 24.641 59.359 24.641 21.281 0 43.121-8.3984 59.359-24.641 33.039-33.039 33.039-86.238 0-118.72-16.238-16.242-38.078-24.641-59.359-24.641-21.277 0-43.117 8.3984-59.359 24.641zm98.562 53.758v11.199h-33.602v33.602h-11.199v-33.602h-33.602v-11.199h33.602v-33.602h11.199v33.602z"/>
  <path d="m350 476c13.441 0 26.879-2.8008 39.762-7.8398-20.16-39.762-14-90.16 19.602-123.2 20.156-20.16 46.477-31.359 75.035-31.359 3.3594 0 7.2812 0 10.641 0.55859-5.0391-39.199-41.441-54.32-89.039-59.359-15.68 15.121-34.719 25.199-56 25.199s-40.32-10.078-55.441-25.199c-51.52 5.6016-90.16 22.961-90.16 69.441 0 61.598 68.32 151.76 145.6 151.76z"/>
  <path d="m318.08 252.56c9.5234 6.7227 20.723 10.641 31.922 10.641s22.398-3.9219 31.922-10.641c27.441-18.48 46.48-57.68 46.48-92.961-0.003906-48.156-35.281-75.598-78.402-75.598s-78.398 27.441-78.398 75.602c0 35.277 19.039 74.477 46.477 92.957z"/>
  <use x="70" y="644" xlink:href="#t"/>
  <use x="90.550781" y="644" xlink:href="#e"/>
  <use x="104.359375" y="644" xlink:href="#a"/>
  <use x="123.347656" y="644" xlink:href="#i"/>
  <use x="142.242188" y="644" xlink:href="#d"/>
  <use x="155.628906" y="644" xlink:href="#a"/>
  <use x="174.617188" y="644" xlink:href="#c"/>
  <use x="204.410156" y="644" xlink:href="#h"/>
  <use x="224.453125" y="644" xlink:href="#g"/>
  <use x="252.453125" y="644" xlink:href="#f"/>
  <use x="271.070312" y="644" xlink:href="#s"/>
  <use x="280.671875" y="644" xlink:href="#c"/>
  <use x="300.710938" y="644" xlink:href="#c"/>
  <use x="320.757812" y="644" xlink:href="#b"/>
  <use x="70" y="672" xlink:href="#r"/>
  <use x="82.183594" y="672" xlink:href="#e"/>
  <use x="95.992188" y="672" xlink:href="#b"/>
  <use x="115.226562" y="672" xlink:href="#q"/>
  <use x="154.152344" y="672" xlink:href="#d"/>
  <use x="167.535156" y="672" xlink:href="#p"/>
  <use x="187.46875" y="672" xlink:href="#a"/>
  <use x="216.207031" y="672" xlink:href="#o"/>
  <use x="239.640625" y="672" xlink:href="#b"/>
  <use x="258.878906" y="672" xlink:href="#n"/>
  <use x="278.8125" y="672" xlink:href="#m"/>
  <use x="308.492188" y="672" xlink:href="#l"/>
  <use x="329.015625" y="672" xlink:href="#e"/>
  <use x="342.820312" y="672" xlink:href="#b"/>
  <use x="362.058594" y="672" xlink:href="#k"/>
  <use x="371.65625" y="672" xlink:href="#a"/>
  <use x="390.648438" y="672" xlink:href="#j"/>
  <use x="407.242188" y="672" xlink:href="#d"/>
 </g>
</svg>
